<svg xmlns="http://www.w3.org/2000/svg" xmlns:xlink="http://www.w3.org/1999/xlink" width="40" zoomAndPan="magnify" viewBox="0 0 30 30.000001" height="40" preserveAspectRatio="xMidYMid meet" version="1.0"><defs><clipPath id="id1"><path d="M 3.386719 2.902344 L 26.613281 2.902344 L 26.613281 26.121094 L 3.386719 26.121094 Z M 3.386719 2.902344 " clip-rule="nonzero"/></clipPath></defs><g clip-path="url(#id1)"><path fill="rgb(6.269836%, 5.879211%, 5.099487%)" d="M 19.0625 11.03125 C 17.460938 11.03125 16.160156 9.726562 16.160156 8.125 C 16.160156 6.523438 17.460938 5.222656 19.0625 5.222656 C 20.664062 5.222656 21.964844 6.523438 21.964844 8.125 C 21.964844 9.726562 20.664062 11.03125 19.0625 11.03125 Z M 23.476562 10.902344 C 24.03125 10.007812 24.347656 8.960938 24.277344 7.8125 C 24.125 5.316406 22.140625 3.203125 19.667969 2.9375 C 16.507812 2.585938 13.835938 5.039062 13.835938 8.125 C 13.835938 11.015625 16.171875 13.351562 19.050781 13.351562 C 20.074219 13.351562 21.023438 13.046875 21.824219 12.539062 L 24.625 15.335938 C 25.078125 15.789062 25.820312 15.789062 26.273438 15.335938 C 26.726562 14.882812 26.726562 14.140625 26.273438 13.6875 Z M 19.0625 21.480469 L 8.632812 21.480469 C 8.148438 21.480469 7.878906 20.921875 8.183594 20.539062 L 10.203125 17.949219 C 10.433594 17.660156 10.875 17.644531 11.109375 17.9375 L 12.917969 20.121094 L 15.648438 16.613281 C 15.878906 16.3125 16.34375 16.3125 16.566406 16.625 L 19.527344 20.5625 C 19.816406 20.933594 19.539062 21.480469 19.0625 21.480469 Z M 21.964844 17.996094 L 21.964844 22.640625 C 21.964844 23.28125 21.445312 23.800781 20.804688 23.800781 L 6.871094 23.800781 C 6.234375 23.800781 5.707031 23.28125 5.707031 22.640625 L 5.707031 8.707031 C 5.707031 8.070312 6.234375 7.542969 6.871094 7.542969 L 10.378906 7.542969 C 11.015625 7.542969 11.539062 7.023438 11.539062 6.382812 C 11.539062 5.746094 11.015625 5.222656 10.378906 5.222656 L 5.707031 5.222656 C 4.433594 5.222656 3.386719 6.269531 3.386719 7.542969 L 3.386719 23.800781 C 3.386719 25.078125 4.433594 26.121094 5.707031 26.121094 L 21.964844 26.121094 C 23.242188 26.121094 24.285156 25.078125 24.285156 23.800781 L 24.285156 17.996094 C 24.285156 17.359375 23.765625 16.832031 23.125 16.832031 C 22.488281 16.832031 21.964844 17.359375 21.964844 17.996094 " fill-opacity="1" fill-rule="nonzero"/></g></svg>
